<mxfile host="app.diagrams.net" modified="2024-01-12T05:40:06.863Z" agent="Mozilla/5.0 (Windows NT 10.0; Win64; x64) AppleWebKit/537.36 (KHTML, like Gecko) Chrome/120.0.0.0 Safari/537.36" version="22.1.18" etag="WRwq9KYPEkzZcqW9vJGB" type="device">
  <diagram id="mEAWC1pFtkdlZQhKQPpU" name="페이지-1">
    <mxGraphModel dx="1247" dy="642" grid="1" gridSize="10" guides="1" tooltips="1" connect="1" arrows="1" fold="1" page="1" pageScale="1" pageWidth="827" pageHeight="1169" math="0" shadow="0">
      <root>
        <mxCell id="0" />
        <mxCell id="1" parent="0" />
        <mxCell id="lVGb4bLuhpGxNx1goPia-15" style="rounded=0;orthogonalLoop=1;jettySize=auto;html=1;entryX=0.5;entryY=0;entryDx=0;entryDy=0;" edge="1" parent="1" source="lVGb4bLuhpGxNx1goPia-1" target="lVGb4bLuhpGxNx1goPia-3">
          <mxGeometry relative="1" as="geometry" />
        </mxCell>
        <mxCell id="lVGb4bLuhpGxNx1goPia-16" style="rounded=0;orthogonalLoop=1;jettySize=auto;html=1;entryX=0.5;entryY=0;entryDx=0;entryDy=0;" edge="1" parent="1" source="lVGb4bLuhpGxNx1goPia-1" target="lVGb4bLuhpGxNx1goPia-5">
          <mxGeometry relative="1" as="geometry" />
        </mxCell>
        <mxCell id="lVGb4bLuhpGxNx1goPia-18" style="rounded=0;orthogonalLoop=1;jettySize=auto;html=1;" edge="1" parent="1" source="lVGb4bLuhpGxNx1goPia-1" target="lVGb4bLuhpGxNx1goPia-4">
          <mxGeometry relative="1" as="geometry" />
        </mxCell>
        <mxCell id="lVGb4bLuhpGxNx1goPia-20" style="rounded=0;orthogonalLoop=1;jettySize=auto;html=1;" edge="1" parent="1" source="lVGb4bLuhpGxNx1goPia-1" target="lVGb4bLuhpGxNx1goPia-8">
          <mxGeometry relative="1" as="geometry" />
        </mxCell>
        <mxCell id="lVGb4bLuhpGxNx1goPia-1" value="학생" style="rounded=1;arcSize=10;whiteSpace=wrap;html=1;align=center;" vertex="1" parent="1">
          <mxGeometry x="351" y="440" width="126" height="40" as="geometry" />
        </mxCell>
        <mxCell id="lVGb4bLuhpGxNx1goPia-3" value="학번" style="ellipse;whiteSpace=wrap;html=1;align=center;fontStyle=4;" vertex="1" parent="1">
          <mxGeometry x="50" y="620" width="100" height="40" as="geometry" />
        </mxCell>
        <mxCell id="lVGb4bLuhpGxNx1goPia-4" value="이름" style="ellipse;whiteSpace=wrap;html=1;align=center;" vertex="1" parent="1">
          <mxGeometry x="210" y="620" width="100" height="40" as="geometry" />
        </mxCell>
        <mxCell id="lVGb4bLuhpGxNx1goPia-5" value="학과" style="ellipse;whiteSpace=wrap;html=1;align=center;" vertex="1" parent="1">
          <mxGeometry x="363.5" y="620" width="100" height="40" as="geometry" />
        </mxCell>
        <mxCell id="lVGb4bLuhpGxNx1goPia-7" value="학년" style="ellipse;whiteSpace=wrap;html=1;align=center;" vertex="1" parent="1">
          <mxGeometry x="510" y="620" width="100" height="40" as="geometry" />
        </mxCell>
        <mxCell id="lVGb4bLuhpGxNx1goPia-8" value="전화번호" style="ellipse;whiteSpace=wrap;html=1;align=center;" vertex="1" parent="1">
          <mxGeometry x="670" y="620" width="100" height="40" as="geometry" />
        </mxCell>
        <mxCell id="lVGb4bLuhpGxNx1goPia-19" style="rounded=0;orthogonalLoop=1;jettySize=auto;html=1;entryX=0.574;entryY=-0.07;entryDx=0;entryDy=0;entryPerimeter=0;" edge="1" parent="1" source="lVGb4bLuhpGxNx1goPia-1" target="lVGb4bLuhpGxNx1goPia-7">
          <mxGeometry relative="1" as="geometry" />
        </mxCell>
        <mxCell id="lVGb4bLuhpGxNx1goPia-22" style="rounded=0;orthogonalLoop=1;jettySize=auto;html=1;entryX=0.5;entryY=0;entryDx=0;entryDy=0;" edge="1" source="lVGb4bLuhpGxNx1goPia-26" target="lVGb4bLuhpGxNx1goPia-27" parent="1">
          <mxGeometry relative="1" as="geometry" />
        </mxCell>
        <mxCell id="lVGb4bLuhpGxNx1goPia-23" style="rounded=0;orthogonalLoop=1;jettySize=auto;html=1;entryX=0.5;entryY=0;entryDx=0;entryDy=0;" edge="1" source="lVGb4bLuhpGxNx1goPia-26" target="lVGb4bLuhpGxNx1goPia-29" parent="1">
          <mxGeometry relative="1" as="geometry" />
        </mxCell>
        <mxCell id="lVGb4bLuhpGxNx1goPia-24" style="rounded=0;orthogonalLoop=1;jettySize=auto;html=1;" edge="1" source="lVGb4bLuhpGxNx1goPia-26" target="lVGb4bLuhpGxNx1goPia-28" parent="1">
          <mxGeometry relative="1" as="geometry" />
        </mxCell>
        <mxCell id="lVGb4bLuhpGxNx1goPia-26" value="과목" style="rounded=1;arcSize=10;whiteSpace=wrap;html=1;align=center;" vertex="1" parent="1">
          <mxGeometry x="1151" y="440" width="126" height="40" as="geometry" />
        </mxCell>
        <mxCell id="lVGb4bLuhpGxNx1goPia-27" value="과목번호" style="ellipse;whiteSpace=wrap;html=1;align=center;fontStyle=4;" vertex="1" parent="1">
          <mxGeometry x="850" y="620" width="100" height="40" as="geometry" />
        </mxCell>
        <mxCell id="lVGb4bLuhpGxNx1goPia-28" value="과목명" style="ellipse;whiteSpace=wrap;html=1;align=center;" vertex="1" parent="1">
          <mxGeometry x="1010" y="620" width="100" height="40" as="geometry" />
        </mxCell>
        <mxCell id="lVGb4bLuhpGxNx1goPia-29" value="담당교수" style="ellipse;whiteSpace=wrap;html=1;align=center;" vertex="1" parent="1">
          <mxGeometry x="1163.5" y="620" width="100" height="40" as="geometry" />
        </mxCell>
        <mxCell id="lVGb4bLuhpGxNx1goPia-30" value="강의실" style="ellipse;whiteSpace=wrap;html=1;align=center;" vertex="1" parent="1">
          <mxGeometry x="1310" y="620" width="100" height="40" as="geometry" />
        </mxCell>
        <mxCell id="lVGb4bLuhpGxNx1goPia-32" style="rounded=0;orthogonalLoop=1;jettySize=auto;html=1;entryX=0.574;entryY=-0.07;entryDx=0;entryDy=0;entryPerimeter=0;" edge="1" source="lVGb4bLuhpGxNx1goPia-26" target="lVGb4bLuhpGxNx1goPia-30" parent="1">
          <mxGeometry relative="1" as="geometry" />
        </mxCell>
        <mxCell id="lVGb4bLuhpGxNx1goPia-34" style="edgeStyle=orthogonalEdgeStyle;rounded=0;orthogonalLoop=1;jettySize=auto;html=1;entryX=0.5;entryY=0;entryDx=0;entryDy=0;" edge="1" parent="1" source="lVGb4bLuhpGxNx1goPia-33" target="lVGb4bLuhpGxNx1goPia-1">
          <mxGeometry relative="1" as="geometry" />
        </mxCell>
        <mxCell id="lVGb4bLuhpGxNx1goPia-35" style="edgeStyle=orthogonalEdgeStyle;rounded=0;orthogonalLoop=1;jettySize=auto;html=1;entryX=0.5;entryY=0;entryDx=0;entryDy=0;" edge="1" parent="1" source="lVGb4bLuhpGxNx1goPia-33" target="lVGb4bLuhpGxNx1goPia-26">
          <mxGeometry relative="1" as="geometry" />
        </mxCell>
        <mxCell id="lVGb4bLuhpGxNx1goPia-33" value="수강신청" style="shape=rhombus;perimeter=rhombusPerimeter;whiteSpace=wrap;html=1;align=center;" vertex="1" parent="1">
          <mxGeometry x="770" y="280" width="120" height="60" as="geometry" />
        </mxCell>
      </root>
    </mxGraphModel>
  </diagram>
</mxfile>
